<svg xmlns="http://www.w3.org/2000/svg" width="160" height="28.385" viewBox="0 0 1313 233">
    <g fill="none">
        <path fill="#FFF" d="M93.7 225.5L49.3 110.9c-.7-2-2.9-1.3-2.9.7v112.9c0 3.6-2.9 6.5-6.5 6.5H7.3c-3.6 0-6.5-2.9-6.5-6.5V9c0-3.6 2.9-6.5 6.5-6.5H46c4.9 0 7.2 2.9 8.2 5.9l44.7 124c.7 2 2.9 1.3 2.9-.7V9c0-3.6 2.9-6.5 6.5-6.5H141c3.6 0 6.5 2.9 6.5 6.5v215.4c0 3.6-2.9 6.5-6.5 6.5h-38.5c-5.5.1-7.8-2.8-8.8-5.4zm502-156.4c0 14.4-7.2 31.7-16.6 41.1-2 2-2 4.2 0 5.9 10.8 9.1 19.3 27.7 19.3 44.4 0 42.8-26.8 70.5-66.9 70.5h-77c-3.6 0-6.5-2.9-6.5-6.5V9c0-3.6 2.9-6.5 6.5-6.5h77c36.5 0 64.2 29.7 64.2 66.6zm-65.9 21.2c11.4 0 21.5-9.8 21.5-21.2 0-11.4-10.1-20.9-21.5-20.9h-33.9c-2 0-3.3 1.3-3.3 3.3v35.6c0 2 1.3 3.3 3.3 3.3h33.9v-.1zm-34 45.7c-2 0-3.3 1.3-3.3 3.3v42.8c0 2 1.3 3.3 3.3 3.3h33.9c14 0 22.8-11.8 22.8-24.8 0-12.7-9.1-24.5-22.8-24.5h-33.9v-.1zm283 24.7c0 39.5-32.6 72.1-77.7 72.1-44.4 0-77-32.6-77-72.1V7.3c0-3.6 2.9-6.5 6.5-6.5h33c3.6 0 6.5 2.9 6.5 6.5v153.4c0 14.4 11.8 26.1 31 26.1 19.9 0 31.7-11.8 31.7-26.1V7.3c0-3.6 2.9-6.5 6.5-6.5h33c3.6 0 6.5 2.9 6.5 6.5v153.4zM913 231c-5.5 0-7.8-2.9-8.8-5.5l-44.4-114.6c-.7-2-2.9-1.3-2.9.7v112.9c0 3.6-2.9 6.5-6.5 6.5h-32.6c-3.6 0-6.5-2.9-6.5-6.5V9c0-3.6 2.9-6.5 6.5-6.5h38.8c4.9 0 7.2 2.9 8.2 5.9l44.7 124c.7 2 2.9 1.3 2.9-.7V9c0-3.6 2.9-6.5 6.5-6.5h32.6c3.6 0 6.5 2.9 6.5 6.5v215.4c0 3.6-2.9 6.5-6.5 6.5H913v.1zm169.7-179.5v173c0 3.6-2.9 6.5-6.5 6.5h-32.6c-3.6 0-6.5-2.9-6.5-6.5v-173c0-2-1.3-3.3-3.3-3.3H993c-3.6 0-6.5-2.9-6.5-6.5V9c0-3.6 2.9-6.5 6.5-6.5h133.8c3.6 0 6.5 2.9 6.5 6.5v32.6c0 3.6-2.9 6.5-6.5 6.5H1086c-2 .1-3.3 1.4-3.3 3.4zm230.2 109.2c0 39.5-32.6 72.1-77.7 72.1-44.4 0-77-32.6-77-72.1V7.3c0-3.6 2.9-6.5 6.5-6.5h33c3.6 0 6.5 2.9 6.5 6.5v153.4c0 14.4 11.8 26.1 31 26.1 19.9 0 31.7-11.8 31.7-26.1V7.3c0-3.6 2.9-6.5 6.5-6.5h33c3.6 0 6.5 2.9 6.5 6.5v153.4zM309.9 224c5-9 11.2-23 12.2-39.1 1.4-22.2-7.4-43-26.1-61.7-9.7-9.7-17.3-20.1-22.5-30.9-8 18-18.3 29.6-18.9 30.3-3.4 3.8-9.2 4-13 .6-3.8-3.4-4-9.2-.6-13 0-.1 5.9-6.6 11.7-17.3 5.2-9.6 11.5-24.5 11.7-41.5V51c.4-18.7 6.5-35.1 12.9-47.3-22.2 4-43.5 14.6-60.7 31.8-44.8 44.8-44.8 117.4 0 162.2 24.4 24.4 57 35.5 88.9 33.3 1.4-1.9 2.9-4.3 4.4-7z"></path>
        <path fill="#FBD146" d="M294.5 10.6c-5.2 9.6-11.5 24.5-11.7 41.5v1c0 20.5 8.8 39.7 26.3 57.2 9.7 9.7 17.2 20 22.5 30.8 8-18.1 18.3-29.7 19-30.5 3.4-3.8 9.2-4 13-.6 2 1.8 3 4.3 3 6.8 0 2.2-.8 4.4-2.4 6.2 0 .1-5.9 6.6-11.7 17.3-5.2 9.6-11.5 24.5-11.7 41.5v.4c0 1.3-.1 2.7-.2 4-1 15.9-5.9 30-11.4 41 18.2-5.2 35.4-14.9 49.8-29.3 44.8-44.8 44.8-117.4 0-162.2-21.9-21.9-50.4-33.1-79.1-33.6-1.8 2.4-3.6 5.3-5.4 8.5z"></path>
    </g>
</svg>