<svg xmlns="http://www.w3.org/2000/svg" viewBox="0 0 1019.2328 167.25133"><defs><style>.cls-1{fill:#61d8e1;}.cls-2{fill:#136879;}</style></defs><title>Time Deposit logo</title><g id="Layer_2" data-name="Layer 2"><g id="Layer_1-2" data-name="Layer 1"><g id="UTUniH"><path class="cls-1" d="M166.76177,42.95377C166.36189,60.7,158.58194,74.357,142.57094,82.07914c-10.54471,5.08572-22.22389,7.17658-34.09629,7.18808-4.99873.00483-10.00216.15795-14.99456-.01409-3.38294-.11656-4.76621,1.00341-4.7157,4.57214a250.44884,250.44884,0,0,1-.75478,25.91354c-1.08826,12.16836-4.17694,23.75106-12.57788,32.58509-10.04736,10.56537-22.4988,16.62228-37.90034,14.50928-13.57606-1.86255-23.07337-9.93876-31.51388-19.74323-1.34983-1.568-2.03878-3.80214-2.71676-5.83382-4.284-12.83777-5.01371-25.88428,1.532-37.95382,5.0166-9.25005,12.90156-15.75489,23.17362-19.94875,14.04873-5.73581,28.46865-5.84,43.05857-5.55273,4.7232.093,6.62167-1.21467,6.30062-6.15456C76.553,59.14312,78.8012,46.80218,80.39694,34.4935c.819-6.317,5.22482-11.56806,8.66554-17.02454C96.39148,5.84629,107.81012,1.19168,120.38685.172c12.68888-1.02878,24.624,2.48582,33.652,12.49388C161.78692,21.255,167.3188,30.79345,166.76177,42.95377ZM77.42856,101.45125c0-1.82986.00445-3.65971-.00082-5.48955-.01892-6.57383-.20882-6.6327-6.66131-6.84574A107.08692,107.08692,0,0,0,51.383,90.15774c-10.41567,1.55915-20.60079,2.8546-29.53,10.26015-9.78538,8.11565-13.64613,25.79151-6.94624,37.49861,7.25047,12.66916,18.44158,18.73813,32.78387,16.78282,10.08609-1.37508,18.29892-6.37024,23.33171-16.37449C76.97279,126.4965,76.89689,114.01025,77.42856,101.45125Zm29.06268-25.0691v-.16644c3.99192,0,8.05543.48484,11.96229-.09122C130.02006,74.419,141.0414,71.73073,148.494,61.188c7.52648-10.6473,7.96044-21.56662,2.115-32.63182a30.54662,30.54662,0,0,0-23.92029-16.51607c-12.93432-1.61851-27.67909,7.39182-32.009,20.24594-4.38583,13.0202-4.98755,26.5634-5.34657,40.1418-.08388,3.17246,1.35571,4.04114,4.18355,3.97919C97.83969,76.3123,102.16622,76.38215,106.49124,76.38215Z"/><path class="cls-2" d="M383.876,69.31718c-7.65708,13.38213-15.044,26.23437-22.36,39.12687-1.46511,2.5818-3.04071,4.74262-6.41006,4.68065-3.231-.05944-4.812-1.78275-6.37544-4.57315-6.442-11.498-13.26017-22.78555-19.93875-34.15123-.86-1.4636-1.03287-3.95861-3.6501-3.05323-2.32693.805-1.577,3.05762-1.58316,4.75792-.05462,15.145-.03091,30.29023-.034,45.43539-.00137,6.72382-5.49857,10.21534-11.51957,7.28563-2.29886-1.1186-1.84377-3.314-1.84471-5.2684q-.01758-35.69932-.00583-71.39864c.00049-3.32838.05028-6.6569.03161-9.98509-.01569-2.79178,1.02662-4.083,4.11264-4.29628,5.73519-.39643,9.157,1.27414,12.103,6.87082,8.20218,15.582,17.43894,30.618,26.15418,45.93382,2.16918,3.812,4.00859,1.46715,5.06514-.3618,7.40132-12.81212,14.5687-25.75895,21.85044-38.64039,1.9415-3.43458,3.934-6.84675,6.05975-10.16917,2.24748-3.51279,9.16948-4.90119,12.544-2.692,2.28812,1.49791,1.63812,3.84852,1.64266,5.90235q.07785,35.19987.03405,70.4c0,2.82931-.19006,5.67423.04068,8.48462.43925,5.35049-3.16728,5.4463-6.81542,5.43388-3.60232-.01228-6.99047.02634-6.91846-5.36326.21117-15.80807.08171-31.62078.06731-47.43165C386.12382,73.95459,386.43926,71.54683,383.876,69.31718Z"/><path class="cls-2" d="M608.08234,84.73182c0-13.80146.05547-27.60327-.03363-41.40416-.02691-4.17206,1.96512-5.43722,5.87467-5.41237,16.9806.108,33.96524.21908,50.94231-.05093,6.08721-.0968,5.27955,3.62591,5.67334,7.52113.49668,4.91165-2.33657,5.002-5.79075,4.98988-12.48608-.04383-24.97375.08367-37.45806-.07326-3.76186-.0473-5.4849.97011-5.25331,5.06389a147.75611,147.75611,0,0,1,.00531,15.96481c-.21108,4.07574,1.14922,5.57449,5.35345,5.47812,10.48295-.24026,20.97749.05337,31.46244-.1387,4.18825-.07671,5.981,1.071,5.70636,5.64166-.24654,4.10471-.34552,7.03-5.82047,6.8529-10.47745-.33887-20.97571.02319-31.46116-.15454-3.85877-.0654-5.39324,1.22046-5.2358,5.17417a131.33294,131.33294,0,0,1-.13388,16.95389c-.39422,4.38042,1.20908,5.63922,5.24775,5.60389,12.65182-.11068,25.313.21864,37.95425-.16346,5.28785-.15985,5.51809,2.55192,5.647,6.43412.13791,4.15468-.78338,6.67019-5.68219,6.62619-16.14762-.145-32.29769.00343-48.4461-.08639-7.76045-.04316-8.93853-1.3537-8.93463-8.88214q.00944-17.969.00165-35.938Z"/><path class="cls-2" d="M521.1119,83.52907c.00134-13.15588.027-26.31185-.01764-39.46759-.01043-3.07376.30293-6.04691,4.19228-6.01015,11.64363.11005,23.354-1.13567,34.91888.60952,15.844,2.39093,27.45592,10.4738,33.043,26.10922,6.7256,18.82157,3.55042,43.36732-12.99368,55.69543A37.38044,37.38044,0,0,1,561.71,128.1449c-11.26607,1.1418-22.60629,1.09926-33.92979.91236-5.9687-.09851-6.66322-.79678-6.667-6.56017Q521.10052,103.0131,521.1119,83.52907Zm14.12227-.37806c0,6.49123-.07237,12.98342.0141,19.47351.22951,17.22849-2.5158,14.41724,14.96972,14.33956,9.52742-.04232,18.93316-1.33526,25.675-9.5822,8.85182-10.828,9.712-23.46836,6.20871-35.85162-4.26922-15.09048-14.40432-21.30315-30.222-21.30425-3.664-.00026-7.3486.24345-10.98671-.06328-4.27905-.36077-5.9211.98621-5.75707,5.52891C535.46607,64.834,535.23417,73.99671,535.23417,83.151Z"/><path class="cls-2" d="M416.13,83.98324c.00137-13.3156.11732-26.63276-.06206-39.94594-.062-4.60063,1.85042-6.15679,6.25582-6.1254,16.82063.11987,33.64508.20787,50.46269-.04805,5.38573-.082,5.70922,2.67775,5.86282,6.858.16562,4.50606-1.61489,5.75989-5.837,5.69961-12.48864-.17828-24.9829.04439-37.47175-.12564-3.62127-.0493-5.09956.99209-4.92515,4.78787.25945,5.64721.26594,11.32456-.00144,16.971-.18264,3.857,1.41395,4.798,4.97443,4.73719,10.323-.17624,20.65262.04392,30.97632-.11126,4.1801-.06283,6.55518.77154,6.2077,5.78072-.43608,6.28766-.33167,6.57378-6.44573,6.59643-10.32593.03826-20.65341.1061-30.97741-.03833-3.38373-.04734-4.83511,1.01634-4.719,4.56069.196,5.98556.21593,11.98837-.00708,17.9721-.14472,3.882,1.24734,5.27469,5.18832,5.21726,12.655-.18446,25.31929.13548,37.97-.1632,5.37865-.127,5.807,2.73711,5.99909,6.86645.21,4.51336-1.71315,5.70124-5.93007,5.65989-16.98644-.16663-33.97544-.04743-50.96343-.081-5.86246-.0116-6.55265-.76093-6.55607-6.61964Q416.11969,103.20763,416.13,83.98324Z"/><path class="cls-2" d="M682.2836,83.52322c-.00336-12.98429-.0393-25.96871.01281-38.95279.0238-5.91942.68513-6.57069,6.62912-6.59972,10.49362-.05126,20.9884.07381,31.48135-.02356,10.32581-.09579,21.40185,9.44332,25.801,18.81805,6.22323,13.262-1.31551,30.97928-12.54723,37.01528a26.56928,26.56928,0,0,1-12.74232,3.553c-6.163-.02589-12.32638-.03587-18.4892.00427-6.32826.04124-6.95138.6661-6.9645,6.76852-.01434,6.65858-.12468,13.32013.03722,19.97479.11088,4.55671-2.53185,5.21256-6.14433,4.99182-3.45839-.21136-7.48651.44816-7.06916-5.09879.01245-.16546-.00122-.3328-.00122-.49926Q682.28687,103.499,682.2836,83.52322Zm12.914-16.12678q0,5.228.001,10.456c.01349,7.2676.113,7.36386,7.61912,7.372,4.65.005,9.3156-.243,13.947.05082,10.151.6439,15.38383-3.87353,18.34213-13.64257,2.58512-8.53653-4.54909-20.68361-12.97233-21.225-7.6085-.48907-15.27118-.15051-22.91-.14656-2.75093.00142-4.24988,1.05181-4.08225,4.19281C695.37187,58.75688,695.19966,63.08124,695.19758,67.39644Z"/><path class="cls-2" d="M754.40825,97.18338q-.153-1.10136-.30536-2.2001a185.1628,185.1628,0,0,1-.11748-21.972q.152-1.07083.3036-2.13923c3.23205-4.7513,4.536-10.46641,8.07351-15.15085,7.12738-9.43833,16.81938-14.503,27.83379-17.6443q4.67736-.01825,9.35215-.03671c8.22619,2.729,16.49906,5.26281,22.87016,11.74491,2.41658,2.45869,4.01195,5.69179,7.097,7.50075q.31691.66369.63307,1.325c1.87267,3.34549,2.28617,7.42733,5.1691,10.26769q.16193,1.10411.32319,2.20555a97.75467,97.75467,0,0,1,.03936,24.91914q-.176,1.09-.35151,2.17766c-3.59118,6.18572-6.77276,12.6217-11.112,18.35791l-.30812.30683a4.03,4.03,0,0,0-2.71627,2.63416l-.36981.31179q-7.6393,4.08111-15.28271,8.16374-1.56969.217-3.13679.43321a62.832,62.832,0,0,0-15.05547.00078q-1.56711-.24582-3.13178-.49106c-6.278-3.35677-12.628-6.60064-18.1781-11.14729a3.39089,3.39089,0,0,1-.435-.36334C760.98684,110.50271,758.1047,103.606,754.40825,97.18338Zm70.0179-14.24913c.44011-2.93407-.70105-6.134-1.06927-9.42117-.31086-2.77462-1.8698-4.96813-3.01871-7.31373C812.7946,50.79854,793.29911,44.34728,778.89465,55.304c-16.33521,12.42535-17.9393,38.40551-3.896,53.32871,10.26343,10.90644,25.05917,9.95075,32.42662,5.67966C819.09693,107.546,824.70583,96.954,824.42615,82.93425Z"/><path class="cls-2" d="M865.37171,115.63687q1.08058.166,2.15874.33153c7.67056,4.61175,15.45487,3.02248,23.27531.451,7.43708-2.44543,10.19051-7.99127,7.50445-15.22923q-.438-1.30107-.87448-2.59993a3.41525,3.41525,0,0,0-2.66074-2.68443q-.604-.3465-1.20591-.69167c-1.81646-1.506-3.31047-3.73029-6.22592-2.81273q-1.07547-.17742-2.1485-.35448c-2.42878-1.47479-4.69817-3.44588-7.89543-2.573q-1.5565-.20989-3.11049-.41945c-2.89184-1.09075-5.43834-3.369-8.87818-2.59868q-1.05624-.20195-2.11017-.40337a13.17745,13.17745,0,0,0-4.8688-3.14819c-6.05859-2.64179-9.82583-6.848-11.3429-13.71989-.944-4.27607,1.39216-8.15155-.014-12.159q.17814-1.06788.3559-2.13344c2.577-2.11994,3.64208-5.25005,5.32044-7.97145a6.413,6.413,0,0,1,.56417-.564c2.31326-1.72962,5.70093-1.98841,7.00942-5.10123q1.07693-.25875,2.15124-.51671c3.40878.66661,5.92312-1.6265,8.81648-2.66939q6.6724.02922,13.3422.058c3.26024,1.04922,6.56918,1.97619,9.775,3.17794,4.51882,1.69393,9.182,3.79592,11.90854,7.66488,2.05861,2.92118-2.58555,5.28994-3.06582,8.36016-.01513.09632-.242.15957-.89523.5607-8.74911-8.85492-20.01744-9.47668-31.70233-8.42566-4.49349.4042-10.57948,5.00275-11.6969,8.805-1.69228,5.75791-.1807,12.20939,4.0084,14.77075A29.34064,29.34064,0,0,0,871.953,76.789a177.40713,177.40713,0,0,1,24.82454,6.69639c14.76133,5.3987,17.542,19.6778,10.9139,33.17105-3.04946,6.20791-9.79318,7.95563-15.16421,11.31868q-1.5747.2071-3.14667.41349a141.514,141.514,0,0,0-21.02893-.02414q-1.08187-.14739-2.16119-.29449c-5.89089-3.339-12.53239-5.05541-18.21538-9.00973-3.35508-2.33448-4.75083-4.35432-2.8764-8.05538,2.09181-4.1304,4.95411-4.5688,8.47017-1.70835q.286.20722.56887.41553C857.30937,112.7694,860.65865,115.49429,865.37171,115.63687Z"/><path class="cls-2" d="M922.30963,83.545c.00214-13.3007.20438-26.60595-.09526-39.8999-.12351-5.48,2.79817-5.803,6.91355-5.74217,4.06748.0601,7.62565-.16,7.59257,5.71378q-.22619,40.15017-.0014,80.30226c.01617,3.79644-1.7923,5.03558-5.09825,5.131-1.4959.04315-2.99753-.065-4.49074.0107-3.64934.185-4.92317-1.481-4.88253-5.11542C922.3983,110.4799,922.30756,97.01192,922.30963,83.545Z"/><path class="cls-2" d="M280.48828,127.13916q-.01995-43.12134-.04018-86.24022a9.58389,9.58389,0,0,1,12.0388-.00181q-.02668,43.12132-.05245,86.24065A17.72374,17.72374,0,0,1,280.48828,127.13916Z"/><path class="cls-1" d="M973.66045,89.54645c-.00025-11.31054-.14036-22.62379.07823-33.93011.07323-3.78564-1.20994-4.91008-4.87838-4.78745-6.98214.23339-13.98161-.0788-20.967.09982-4.23267.10824-5.49418-1.747-5.232-5.73379.254-3.86287-.55319-7.9709,5.43858-7.91087,10.48428.105,20.97052.01857,31.45591.017,11.48405-.00169,22.97048.13456,34.45081-.06944,3.96014-.07037,5.52347,1.35839,5.18027,5.21031a25.52972,25.52972,0,0,0,.01037,4.487c.27266,3.09016-1.15886,4.06653-4.115,4.01018-6.98781-.13318-13.98783.15944-20.967-.12017-3.874-.1552-5.134.95-5.1,4.98262.19,22.45313.09752,44.90872.08422,67.36347-.00427,7.06925-.50809,7.52933-7.8122,7.50817-6.01667-.01743-7.61246-1.60489-7.62174-7.69408Q973.64007,106.26279,973.66045,89.54645ZM987.514,88.9486c0-11.47281.136-22.94811-.07384-34.41709-.07335-4.00967,1.41882-5.24272,5.257-5.12465,6.98122.21474,13.981-.13161,20.95881.13255,3.99992.15141,4.31383-1.97667,4.1-4.96445-.19381-2.70668.66749-5.752-3.97185-5.7233-21.12907.13052-42.25948.08349-63.38921.02715-4.60334-.01227-4.16073,3.21146-4.42075,6.19455-.27456,3.14965.83841,4.54126,4.19441,4.44476,6.31709-.18165,12.64309-.05958,18.96543-.0479,7.62437.01409,7.63675.02914,7.63755,7.38683.00232,21.78171.04827,43.56363-.04718,65.34492-.01525,3.48665.39721,5.70136,4.77244,5.45752,3.70334-.20639,6.27151-.31615,6.11919-5.29336C987.27566,111.23627,987.50963,100.08886,987.514,88.9486Z"/><path class="cls-1" d="M242.21085,90.53987c-.00091,11.31038.03317,22.6209-.01556,33.93107-.02368,5.49527-.861,6.164-7.09623,6.20087-6.2604.037-8.276-1.44039-8.28779-6.5103-.05178-22.288-.02044-44.57607-.02374-66.86412-.00091-6.39242-.00784-6.39423-6.60809-6.39889-6.158-.00434-12.32195-.17011-18.47206.04921-4.47321.15952-6.21636-1.37241-5.95165-6.06673.3827-6.78645.59649-7.53922,6.28368-7.55643,18.80679-.05692,37.6138-.02318,56.42073-.02411q3.24544-.00017,6.49089.00129c7.34576.01093,7.08573.02437,7.44916,7.45074.22884,4.676-.99864,6.5713-6.015,6.25007-6.63009-.42457-13.31232.0394-19.9634-.16436-3.27416-.10031-4.31579,1.01415-4.27219,4.2745C242.30748,66.91991,242.21177,78.73053,242.21085,90.53987Zm-1.694-1.494c0-11.30725.19924-22.61972-.09743-33.9192-.11973-4.56051,1.6549-5.832,5.83881-5.71165,6.81622.19611,13.6465-.09156,20.46231.11158,3.37.10045,4.52962-1.24376,4.15627-4.3883-.32166-2.70961,1.12664-6.28793-3.93643-6.266q-31.69611.13707-63.39322.00426c-4.594-.01347-4.15137,3.18281-4.45412,6.17207-.36917,3.64477,1.35077,4.55936,4.67976,4.47082,6.65076-.17688,13.318.15365,19.96226-.1183,4.8319-.19778,6.30522,1.65265,6.25985,6.43834-.21283,22.44619-.02914,44.89592-.16,67.34337-.02114,3.631.99739,5.16065,4.79853,4.91676,3.4716-.22272,6.0754-.44063,5.96723-5.13392C240.34026,111.66441,240.51635,100.35309,240.51687,89.04585Z"/><path class="cls-1" d="M892.5272,127.97517c5.371-3.36306,12.11475-5.11078,15.16421-11.31869,6.62808-13.49325,3.84743-27.77235-10.9139-33.17105A177.40713,177.40713,0,0,0,871.953,76.789a29.34064,29.34064,0,0,1-9.08682-3.74815c-4.1891-2.56136-5.70068-9.01284-4.0084-14.77075,1.11742-3.80224,7.20341-8.40079,11.6969-8.805,11.68489-1.051,22.95322-.42926,31.70233,8.42566.65321-.40113.8801-.46438.89523-.5607.48027-3.07022,5.12443-5.439,3.06582-8.36016-2.72658-3.869-7.38972-5.97095-11.90854-7.66488-3.20581-1.20175-6.51475-2.12872-9.775-3.178,3.07289-1.291,5.7733-.83194,8.81648.73021,4.3109,2.21295,8.83247,3.70071,12.78174,6.92,2.61656,2.13282,2.52459,3.84895,2.05769,6.29382-1.47106,7.7033-5.50717,9.37054-11.52341,4.64339-7.82-6.14444-16.92258-6.86826-26.13547-5.61484-6.91935.94139-10.41545,6.7051-10.5195,13.686-.069,4.62406,3.48665,6.81369,6.13322,7.49942,4.55971,1.18138,8.65172,3.54519,13.48463,4.20324,9.59168,1.306,18.9586,4.02676,26.57363,10.49653,8.42861,7.161,9.38956,15.10465,5.40544,26.58933-2.75483,7.941-8.89654,11.37452-15.40983,14.83321A2.8552,2.8552,0,0,1,892.5272,127.97517Z"/><path class="cls-1" d="M790.19631,38.07694c-11.01441,3.14129-20.70641,8.206-27.83379,17.6443-3.53748,4.68444-4.84146,10.39955-8.07351,15.15085-2.39107-5.20514,2.25651-8.3788,3.9699-12.15256a34.76209,34.76209,0,0,1,16.80992-16.83407C779.76084,39.5953,784.16743,35.36412,790.19631,38.07694Z"/><path class="cls-1" d="M853.5688,109.29656c-3.51606-2.86045-6.37836-2.422-8.47017,1.70835-1.87443,3.70106-.47868,5.7209,2.8764,8.05538,5.683,3.95432,12.32449,5.67075,18.21538,9.00973-4.572,2.88587-7.825-1.27352-11.1201-2.7507-4.68682-2.101-9.70219-4.35986-13.02621-8.8237-.73242-.98352-1.8776-2.1644-.80992-2.90272,2.40108-1.66043,2.02016-4.88939,4.15243-6.51231,1.37873-1.04935,1.67238-4.30716,3.67375-3.28958C851.00625,104.78041,853.89235,106.0109,853.5688,109.29656Z"/><path class="cls-1" d="M898.31021,101.19018c2.68606,7.238-.06737,12.7838-7.50445,15.22923-7.82044,2.57147-15.60475,4.16074-23.27531-.451,5.71131-1.411,11.50352-.26717,17.25486-.50927,8.87787-.37369,12.29867-3.49436,12.86443-12.50334A6.50614,6.50614,0,0,1,898.31021,101.19018Z"/><path class="cls-1" d="M846.97465,57.0253c1.4062,4.0075-.92995,7.883.014,12.159,1.51707,6.87188,5.28431,11.0781,11.3429,13.71989a13.17745,13.17745,0,0,1,4.8688,3.14819c-3.86354,2.41925-6.09045-1.6682-8.62151-2.821-6.39283-2.91164-11.72431-13.668-10.68878-20.418C844.221,60.65712,844.40014,58.12147,846.97465,57.0253Z"/><path class="cls-1" d="M829.51561,57.28589c-3.085-1.809-4.68041-5.04206-7.097-7.50075-6.3711-6.4821-14.644-9.01595-22.87016-11.74491,3.99492-1.47515,7.08906.386,10.83677,1.76552A40.13257,40.13257,0,0,1,828.556,53.3512C829.498,54.5512,830.55657,55.64008,829.51561,57.28589Z"/><path class="cls-1" d="M835.68033,96.00325a97.75467,97.75467,0,0,0-.03936-24.91914c1.71692.81706,3.18634,2.00037,3.222,3.9893.1063,5.925.04613,11.85316.02252,17.78C838.87723,94.9401,837.35045,95.5638,835.68033,96.00325Z"/><path class="cls-1" d="M753.98541,73.01132a185.15006,185.15006,0,0,0,.11754,21.972c-2.64182-1.257-3.20459-3.65415-3.25427-6.21438-.07408-3.81806.07854-7.64093-.01623-11.458C750.77417,74.96344,751.62132,73.48421,753.98541,73.01132Z"/><path class="cls-1" d="M868.3516,128.36451a141.514,141.514,0,0,1,21.02893.02414c-1.287,3.2957-4.58448,2.55531-6.853,2.75434C877.66983,131.56923,872.49323,132.176,868.3516,128.36451Z"/><path class="cls-1" d="M787.34767,128.38933a62.832,62.832,0,0,1,15.05547-.00078C799.6984,132.88733,790.04905,132.88736,787.34767,128.38933Z"/><path class="cls-1" d="M824.21684,116.53882c4.33922-5.73621,7.5208-12.17219,11.112-18.35791,1.69643,4.98209-2.11706,8.42685-4.07663,12.01627C829.915,112.64655,828.20529,116.30464,824.21684,116.53882Z"/><path class="cls-1" d="M766.03779,116.751c5.55013,4.54665,11.90012,7.79052,18.1781,11.14729-4.92183,2.72327-7.73494-1.96287-11.08441-3.67132C770.27492,122.76992,766.30416,121.17869,766.03779,116.751Z"/><path class="cls-1" d="M754.40825,97.18338c3.69645,6.42264,6.57859,13.31933,11.1945,19.20426-2.73684,1.2744-2.76583-1.56967-3.9137-2.63114-3.9544-3.65628-4.96479-9.07189-7.803-13.41647A2.34907,2.34907,0,0,1,754.40825,97.18338Z"/><path class="cls-1" d="M805.53993,127.95534q7.64242-4.08223,15.28271-8.16374c1.18138,3.00448-2.01357,3.75111-3.132,4.11C813.62765,125.20532,810.84206,130.56469,805.53993,127.95534Z"/><path class="cls-1" d="M280.48828,127.13916a17.72374,17.72374,0,0,0,11.94617-.00138c.98976.72129.441,1.44625-.10256,2.01426-2.11282,2.20788-9.62948,2.20773-11.742-.00021C280.04613,128.58356,279.49834,127.85851,280.48828,127.13916Z"/><path class="cls-1" d="M292.4869,40.89713a9.58389,9.58389,0,0,0-12.0388.00181c-.10954-3.593-.10954-3.593,6.01722-3.59609C292.5874,37.29978,292.5874,37.29978,292.4869,40.89713Z"/><path class="cls-1" d="M835.31778,68.87856c-2.88293-2.84036-3.29643-6.9222-5.1691-10.26769C833.48069,59.50092,836.19537,64.89266,835.31778,68.87856Z"/><path class="cls-1" d="M865.37171,115.63687c-4.71306-.14258-8.06234-2.86747-11.234-5.92478C858.4097,110.69067,862.62828,111.76671,865.37171,115.63687Z"/><path class="cls-1" d="M865.31056,86.4558c3.43984-.77035,5.98634,1.50793,8.87818,2.59868C870.68262,90.04728,867.24791,90.80576,865.31056,86.4558Z"/><path class="cls-1" d="M852.651,46.92041c-1.67836,2.7214-2.74343,5.85151-5.32044,7.97145C846.35672,50.40121,848.78019,48.17832,852.651,46.92041Z"/><path class="cls-1" d="M871.1923,38.06912c-2.89336,1.04289-5.4077,3.336-8.81648,2.66939C864.37371,36.73858,867.596,36.787,871.1923,38.06912Z"/><path class="cls-1" d="M877.29923,89.47393c3.19726-.87287,5.46665,1.09822,7.89543,2.573C881.9335,93.11269,878.93939,93.3678,877.29923,89.47393Z"/><path class="cls-1" d="M860.22458,41.25522c-1.30849,3.11282-4.69616,3.37161-7.00942,5.10123C853.90761,43.49743,856.82788,41.37166,860.22458,41.25522Z"/><path class="cls-1" d="M887.34316,92.40142c2.91545-.91756,4.40946,1.30676,6.22592,2.81271C890.47018,96.536,888.686,94.95657,887.34316,92.40142Z"/><path class="cls-1" d="M894.775,95.90581a3.41527,3.41527,0,0,1,2.66074,2.68446C895.19368,99.0347,894.36234,98.08611,894.775,95.90581Z"/><path class="cls-1" d="M821.19245,119.47981a4.03,4.03,0,0,1,2.71627-2.63416C824.37367,119.1366,823.52415,120.07128,821.19245,119.47981Z"/><path class="cls-2" d="M987.51183,88.9486c-.0022,11.14026-.23617,22.28767.10423,33.41753.15232,4.97721-2.41585,5.087-6.11919,5.29336-4.37523.24384-4.78769-1.97087-4.77244-5.45752.09545-21.78129.0495-43.56321.04718-65.34492-.0008-7.35769-.01318-7.37274-7.63755-7.38683-6.32234-.01168-12.64834-.13375-18.96543.0479-3.356.0965-4.469-1.29511-4.19441-4.44476.26-2.98309-.18259-6.20682,4.42075-6.19455,21.12973.05634,42.26014.10337,63.38921-.02715,4.63934-.02866,3.778,3.01662,3.97185,5.7233.21383,2.98778-.10008,5.11586-4.1,4.96445-6.97781-.26416-13.97759.08219-20.95881-.13255-3.83821-.11807-5.33038,1.115-5.257,5.12465C987.65,66.00049,987.514,77.47579,987.51183,88.9486Z"/><path class="cls-2" d="M240.51659,89.04585c-.00024,11.30724-.17633,22.61856.08412,33.9198.10817,4.69329-2.49563,4.9112-5.96723,5.13392-3.80114.24389-4.81967-1.28575-4.79853-4.91676.13084-22.44745-.05285-44.89718.16-67.34337.04537-4.78569-1.428-6.63612-6.25985-6.43834-6.64428.272-13.3115-.05858-19.96226.1183-3.329.08854-5.04893-.826-4.67976-4.47082.30275-2.98926-.13985-6.18554,4.45412-6.17207q31.6965.09291,63.39322-.00426c5.06307-.0219,3.61477,3.55642,3.93643,6.266.37335,3.14454-.7863,4.48875-4.15627,4.3883-6.81581-.20314-13.64609.08453-20.46231-.11158-4.18391-.12039-5.95854,1.15114-5.83881,5.71165C240.71611,66.42613,240.51687,77.7386,240.51659,89.04585Z"/></g></g></g></svg>