<svg xmlns="http://www.w3.org/2000/svg" viewBox="0 0 1017.80616 167.25133"><defs><style>.cls-1{fill:#61d8e1;}.cls-2{fill:#fff;}</style></defs><title>Time Deposit 2</title><g id="Layer_2" data-name="Layer 2"><g id="Layer_1-2" data-name="Layer 1"><g id="UTUniH"><path class="cls-1" d="M166.76177,42.95377C166.36189,60.7,158.58194,74.357,142.57094,82.07914c-10.54471,5.08572-22.22389,7.17658-34.09629,7.18808-4.99873.00483-10.00216.15795-14.99456-.01409-3.38294-.11656-4.76621,1.00341-4.7157,4.57214a250.44884,250.44884,0,0,1-.75478,25.91354c-1.08826,12.16836-4.17694,23.75106-12.57788,32.58509-10.04736,10.56537-22.4988,16.62228-37.90034,14.50928-13.57606-1.86255-23.07337-9.93876-31.51388-19.74323-1.34983-1.568-2.03878-3.80214-2.71676-5.83382-4.284-12.83777-5.01371-25.88428,1.532-37.95382,5.0166-9.25005,12.90156-15.75489,23.17362-19.94875,14.04873-5.73581,28.46865-5.84,43.05857-5.55273,4.7232.093,6.62167-1.21467,6.30062-6.15456C76.553,59.14312,78.8012,46.80218,80.39694,34.4935c.819-6.317,5.22482-11.56806,8.66554-17.02454C96.39148,5.84629,107.81012,1.19168,120.38685.172c12.68888-1.02878,24.624,2.48582,33.652,12.49388C161.78692,21.255,167.3188,30.79345,166.76177,42.95377ZM77.42856,101.45125c0-1.82986.00445-3.65971-.00082-5.48955-.01892-6.57383-.20882-6.6327-6.66131-6.84574A107.08692,107.08692,0,0,0,51.383,90.15774c-10.41567,1.55915-20.60079,2.8546-29.53,10.26015-9.78538,8.11565-13.64613,25.79151-6.94624,37.49861,7.25047,12.66916,18.44158,18.73813,32.78387,16.78282,10.08609-1.37508,18.29892-6.37024,23.33171-16.37449C76.97279,126.4965,76.89689,114.01025,77.42856,101.45125Zm29.06268-25.0691v-.16644c3.99192,0,8.05543.48484,11.96229-.09122C130.02006,74.419,141.0414,71.73073,148.494,61.188c7.52648-10.6473,7.96044-21.56662,2.115-32.63182a30.54662,30.54662,0,0,0-23.92029-16.51607c-12.93432-1.61851-27.67909,7.39182-32.009,20.24594-4.38583,13.0202-4.98755,26.5634-5.34657,40.1418-.08388,3.17246,1.35571,4.04114,4.18355,3.97919C97.83969,76.3123,102.16622,76.38215,106.49124,76.38215Z"/><path class="cls-2" d="M383.876,69.31718c-7.65708,13.38213-15.044,26.23437-22.36,39.12687-1.46511,2.5818-3.04071,4.74262-6.41006,4.68065-3.231-.05944-4.812-1.78275-6.37544-4.57315-6.442-11.498-13.26017-22.78555-19.93875-34.15123-.86-1.4636-1.03287-3.95861-3.6501-3.05323-2.32693.805-1.577,3.05762-1.58316,4.75792-.05462,15.145-.03091,30.29023-.034,45.43539-.00137,6.72382-5.49857,10.21534-11.51957,7.28563-2.29886-1.1186-1.84377-3.314-1.84471-5.2684q-.01758-35.69932-.00583-71.39864c.00049-3.32838.05028-6.6569.03161-9.98509-.01569-2.79178,1.02662-4.083,4.11264-4.29628,5.73519-.39643,9.157,1.27414,12.103,6.87082,8.20218,15.582,17.43894,30.618,26.15418,45.93382,2.16918,3.812,4.00859,1.46715,5.06514-.3618,7.40132-12.81212,14.5687-25.75895,21.85044-38.64039,1.9415-3.43458,3.934-6.84675,6.05975-10.16917,2.24748-3.51279,9.16948-4.90119,12.544-2.692,2.28812,1.49791,1.63812,3.84852,1.64266,5.90235q.07785,35.19987.03405,70.4c0,2.82931-.19006,5.67423.04068,8.48462.43925,5.35049-3.16728,5.4463-6.81542,5.43388-3.60232-.01228-6.99047.02634-6.91846-5.36326.21117-15.80807.08171-31.62078.06731-47.43165C386.12382,73.95459,386.43926,71.54683,383.876,69.31718Z"/><path class="cls-2" d="M608.08234,84.73182c0-13.80146.05547-27.60327-.03363-41.40416-.02691-4.17206,1.96512-5.43722,5.87467-5.41237,16.9806.108,33.96524.21908,50.94231-.05093,6.08721-.0968,5.27955,3.62591,5.67334,7.52113.49668,4.91165-2.33657,5.002-5.79075,4.98988-12.48608-.04383-24.97375.08367-37.45806-.07326-3.76186-.0473-5.4849.97011-5.25331,5.06389a147.75611,147.75611,0,0,1,.00531,15.96481c-.21108,4.07574,1.14922,5.57449,5.35345,5.47812,10.48295-.24026,20.97749.05337,31.46244-.1387,4.18825-.07671,5.981,1.071,5.70636,5.64166-.24654,4.10471-.34552,7.03-5.82047,6.8529-10.47745-.33887-20.97571.02319-31.46116-.15454-3.85877-.0654-5.39324,1.22046-5.2358,5.17417a131.33294,131.33294,0,0,1-.13388,16.95389c-.39422,4.38042,1.20908,5.63922,5.24775,5.60389,12.65182-.11068,25.313.21864,37.95425-.16346,5.28785-.15985,5.51809,2.55192,5.647,6.43412.13791,4.15468-.78338,6.67019-5.68219,6.62619-16.14762-.145-32.29769.00343-48.4461-.08639-7.76045-.04316-8.93853-1.3537-8.93463-8.88214q.00944-17.969.00165-35.938Z"/><path class="cls-2" d="M521.1119,83.52907c.00134-13.15588.027-26.31185-.01764-39.46759-.01043-3.07376.30293-6.04691,4.19228-6.01015,11.64363.11005,23.354-1.13567,34.91888.60952,15.844,2.39093,27.45592,10.4738,33.043,26.10922,6.7256,18.82157,3.55042,43.36732-12.99368,55.69543A37.38044,37.38044,0,0,1,561.71,128.1449c-11.26607,1.1418-22.60629,1.09926-33.92979.91236-5.9687-.09851-6.66322-.79678-6.667-6.56017Q521.10052,103.0131,521.1119,83.52907Zm14.12227-.37806c0,6.49123-.07237,12.98342.0141,19.47351.22951,17.22849-2.5158,14.41724,14.96972,14.33956,9.52742-.04232,18.93316-1.33526,25.675-9.5822,8.85182-10.828,9.712-23.46836,6.20871-35.85162-4.26922-15.09048-14.40432-21.30315-30.222-21.30425-3.664-.00026-7.3486.24345-10.98671-.06328-4.27905-.36077-5.9211.98621-5.75707,5.52891C535.46607,64.834,535.23417,73.99671,535.23417,83.151Z"/><path class="cls-2" d="M416.13,83.98324c.00137-13.3156.11732-26.63276-.06206-39.94594-.062-4.60063,1.85042-6.15679,6.25582-6.1254,16.82063.11987,33.64508.20787,50.46269-.04805,5.38573-.082,5.70922,2.67775,5.86282,6.858.16562,4.50606-1.61489,5.75989-5.837,5.69961-12.48864-.17828-24.9829.04439-37.47175-.12564-3.62127-.0493-5.09956.99209-4.92515,4.78787.25945,5.64721.26594,11.32456-.00144,16.971-.18264,3.857,1.41395,4.798,4.97443,4.73719,10.323-.17624,20.65262.04392,30.97632-.11126,4.1801-.06283,6.55518.77154,6.2077,5.78072-.43608,6.28766-.33167,6.57378-6.44573,6.59643-10.32593.03826-20.65341.1061-30.97741-.03833-3.38373-.04734-4.83511,1.01634-4.719,4.56069.196,5.98556.21593,11.98837-.00708,17.9721-.14472,3.882,1.24734,5.27469,5.18832,5.21726,12.655-.18446,25.31929.13548,37.97-.1632,5.37865-.127,5.807,2.73711,5.99909,6.86645.21,4.51336-1.71315,5.70124-5.93007,5.65989-16.98644-.16663-33.97544-.04743-50.96343-.081-5.86246-.0116-6.55265-.76093-6.55607-6.61964Q416.11969,103.20763,416.13,83.98324Z"/><path class="cls-2" d="M682.2836,83.52322c-.00336-12.98429-.0393-25.96871.01281-38.95279.0238-5.91942.68513-6.57069,6.62912-6.59972,10.49362-.05126,20.9884.07381,31.48135-.02356,10.32581-.09579,21.40185,9.44332,25.801,18.81805,6.22323,13.262-1.31551,30.97928-12.54723,37.01528a26.56928,26.56928,0,0,1-12.74232,3.553c-6.163-.02589-12.32638-.03587-18.4892.00427-6.32826.04124-6.95138.6661-6.9645,6.76852-.01434,6.65858-.12468,13.32013.03722,19.97479.11088,4.55671-2.53185,5.21256-6.14433,4.99182-3.45839-.21136-7.48651.44816-7.06916-5.09879.01245-.16546-.00122-.3328-.00122-.49926Q682.28687,103.499,682.2836,83.52322Zm12.914-16.12678q0,5.228.001,10.456c.01349,7.2676.113,7.36386,7.61912,7.372,4.65.005,9.3156-.243,13.947.05082,10.151.6439,15.38383-3.87353,18.34213-13.64257,2.58512-8.53653-4.54909-20.68361-12.97233-21.225-7.6085-.48907-15.27118-.15051-22.91-.14656-2.75093.00142-4.24988,1.05181-4.08225,4.19281C695.37187,58.75688,695.19966,63.08124,695.19758,67.39644Z"/><path class="cls-2" d="M753.98541,73.01132c.41276-4.78538,4.83963-12.60564,8.37711-17.29008,7.12738-9.43833,19.72011-16.214,27.83379-17.6443,8.44073-1.488,23.08821.65427,32.22231,11.7082,12.5271,15.16006,16.43728,34.62437,13.26171,46.21811-1.85233,6.76267-9.43044,19.34878-14.85769,23.78835-3.93337,3.21755-13.40952,7.746-18.4195,8.597-4.48424.76167-17.18681-.15518-18.18725-.49028-6.75044-2.26109-15.04413-7.36381-18.61314-11.51063C758.27953,107.87884,752.28452,92.73121,753.98541,73.01132Zm70.44074,9.92293c.44011-2.93407-.70105-6.134-1.06927-9.42117-.31086-2.77462-1.8698-4.96813-3.01871-7.31373C812.7946,50.79854,793.29911,44.34728,778.89465,55.304c-16.33521,12.42535-17.9393,38.40551-3.896,53.32871,10.26343,10.90644,25.05917,9.95075,32.42662,5.67966C819.09693,107.546,824.70583,96.954,824.42615,82.93425Z"/><path class="cls-2" d="M865.37171,115.63687c.72039.11067,17.61361,3.354,25.434.78254,7.43708-2.44543,9.79476-11.65573,7.50445-15.22923-4.87525-7.6067-25.872-11.728-32.99965-14.73438-1.80378-.76081-5.14725-2.75283-6.979-3.55156-6.05859-2.64179-9.82583-6.848-11.3429-13.71989-.944-4.27607,3.29583-23.45314,13.23589-27.92913,13.05994-6.524,30.8791-1.1519,34.08491.04985,4.51882,1.69393,9.182,3.79592,11.90854,7.66488,2.05861,2.92118-2.58555,5.28994-3.06582,8.36016-.01513.09632-.242.15957-.89523.5607-8.74911-8.85492-20.01744-9.47668-31.70233-8.42566-4.49349.4042-10.57948,5.00275-11.6969,8.805-1.69228,5.75791-.1807,12.20939,4.0084,14.77075A29.34064,29.34064,0,0,0,871.953,76.789a177.40713,177.40713,0,0,1,24.82454,6.69639c14.76133,5.3987,17.542,19.6778,10.9139,33.17105-3.04946,6.20791-10.47732,10.67664-15.16421,11.31868-11.25374,1.54159-38.86918-4.96055-44.55217-8.91487-3.35508-2.33448-4.75083-4.35432-2.8764-8.05538,2.09181-4.1304,4.95411-4.5688,8.47017-1.70835C853.75944,109.43471,860.65865,115.49429,865.37171,115.63687Z"/><path class="cls-2" d="M922.30963,83.545c.00214-13.3007.20438-26.60595-.09526-39.8999-.12351-5.48,2.79817-5.803,6.91355-5.74217,4.06748.0601,7.62565-.16,7.59257,5.71378q-.22619,40.15017-.0014,80.30226c.01617,3.79644-1.7923,5.03558-5.09825,5.131-1.4959.04315-2.99753-.065-4.49074.0107-3.64934.185-4.92317-1.481-4.88253-5.11542C922.3983,110.4799,922.30756,97.01192,922.30963,83.545Z"/><path class="cls-2" d="M280.48828,127.13916q-.01995-43.12134-.04018-86.24022a9.58389,9.58389,0,0,1,12.0388-.00181q-.02668,43.12132-.05245,86.24065A17.72374,17.72374,0,0,1,280.48828,127.13916Z"/><path class="cls-2" d="M987.514,88.9486c0-11.47281.136-22.94811-.07384-34.41709-.07335-4.00967,1.41882-5.24272,5.257-5.12465,6.98122.21474,13.981-.13161,20.95881.13255,3.99992.15141,4.31383-1.97667,4.1-4.96445-.19381-2.70668.66749-5.752-3.97185-5.7233-21.12907.13052-42.25948.08349-63.38921.02715-4.60334-.01227-4.16073,3.21146-4.42075,6.19455-.27456,3.14965.83841,4.54126,4.19441,4.44476,6.31709-.18165,12.64309-.05958,18.96543-.0479,7.62437.01409,7.63675.02914,7.63755,7.38683.00232,21.78171.04827,43.56363-.04718,65.34492-.01525,3.48665.39721,5.70136,4.77244,5.45752,3.70334-.20639,6.27151-.31615,6.11919-5.29336C987.27566,111.23627,987.50963,100.08886,987.514,88.9486Z"/><path class="cls-2" d="M240.51687,89.04585c0-11.30725.19924-22.61972-.09743-33.9192-.11973-4.56051,1.6549-5.832,5.83881-5.71165,6.81622.19611,13.6465-.09156,20.46231.11158,3.37.10045,4.52962-1.24376,4.15627-4.3883-.32166-2.70961,1.12664-6.28793-3.93643-6.266q-31.69611.13707-63.39322.00426c-4.594-.01347-4.15137,3.18281-4.45412,6.17207-.36917,3.64477,1.35077,4.55936,4.67976,4.47082,6.65076-.17688,13.318.15365,19.96226-.1183,4.8319-.19778,6.30522,1.65265,6.25985,6.43834-.21283,22.44619-.02914,44.89592-.16,67.34337-.02114,3.631.99739,5.16065,4.79853,4.91676,3.4716-.22272,6.0754-.44063,5.96723-5.13392C240.34026,111.66441,240.51635,100.35309,240.51687,89.04585Z"/><path class="cls-2" d="M987.51183,88.9486c-.0022,11.14026-.23617,22.28767.10423,33.41753.15232,4.97721-2.41585,5.087-6.11919,5.29336-4.37523.24384-4.78769-1.97087-4.77244-5.45752.09545-21.78129.0495-43.56321.04718-65.34492-.0008-7.35769-.01318-7.37274-7.63755-7.38683-6.32234-.01168-12.64834-.13375-18.96543.0479-3.356.0965-4.469-1.29511-4.19441-4.44476.26-2.98309-.18259-6.20682,4.42075-6.19455,21.12973.05634,42.26014.10337,63.38921-.02715,4.63934-.02866,3.778,3.01662,3.97185,5.7233.21383,2.98778-.10008,5.11586-4.1,4.96445-6.97781-.26416-13.97759.08219-20.95881-.13255-3.83821-.11807-5.33038,1.115-5.257,5.12465C987.65,66.00049,987.514,77.47579,987.51183,88.9486Z"/><path class="cls-2" d="M240.51659,89.04585c-.00024,11.30724-.17633,22.61856.08412,33.9198.10817,4.69329-2.49563,4.9112-5.96723,5.13392-3.80114.24389-4.81967-1.28575-4.79853-4.91676.13084-22.44745-.05285-44.89718.16-67.34337.04537-4.78569-1.428-6.63612-6.25985-6.43834-6.64428.272-13.3115-.05858-19.96226.1183-3.329.08854-5.04893-.826-4.67976-4.47082.30275-2.98926-.13985-6.18554,4.45412-6.17207q31.6965.09291,63.39322-.00426c5.06307-.0219,3.61477,3.55642,3.93643,6.266.37335,3.14454-.7863,4.48875-4.15627,4.3883-6.81581-.20314-13.64609.08453-20.46231-.11158-4.18391-.12039-5.95854,1.15114-5.83881,5.71165C240.71611,66.42613,240.51687,77.7386,240.51659,89.04585Z"/></g></g></g></svg>